<?xml version="1.0" encoding="UTF-8"?>
<svg id="katman_2" data-name="katman 2" xmlns="http://www.w3.org/2000/svg" viewBox="0 0 5535.27 5535.27">
  <defs>
    <style>
      .cls-1 {
        fill: #d2c9c0;
      }

      .cls-2 {
        fill: #564333;
      }

      .cls-3 {
        fill: #554232;
      }

      .cls-4 {
        fill: #e0d5c8;
      }

      .cls-5 {
        fill: #e5d9cc;
      }

      .cls-6 {
        fill: #e4d8cb;
      }

      .cls-7 {
        fill: #e6dbce;
      }

      .cls-8 {
        fill: #d3cac1;
      }

      .cls-9 {
        fill: #d1c8be;
      }

      .cls-10 {
        fill: #e6dacd;
      }

      .cls-11 {
        fill: #678096;
      }

      .cls-12 {
        fill: #7a896d;
      }

      .cls-13 {
        fill: #e7dbcf;
      }

      .cls-14 {
        fill: #d1c8bf;
      }

      .cls-15 {
        fill: #d1c9c0;
      }

      .cls-16 {
        fill: #e2d6c9;
      }

      .cls-17 {
        fill: #f5f1ec;
      }

      .cls-18 {
        fill: #e6dace;
      }

      .cls-19 {
        fill: #e3d7ca;
      }

      .cls-20 {
        fill: #554233;
      }

      .cls-21 {
        fill: #7b896e;
      }

      .cls-22 {
        fill: #698297;
      }
    </style>
  </defs>
  <g id="katman_1" data-name="katman 1">
    <g>
      <path class="cls-14" d="M3607.85.02l1.26,146.31c-4.86,173.72-140.98,328.83-319.06,336.15l-559.39,3.36c-149.4,7.42-265.97,124.01-270.97,273l-.4,513.91-505,.26-1.45-601.92C1945.98,359.77,2146.56,83.46,2443.46.01h1164.39Z"/>
      <path class="cls-7" d="M0,2611.06v-467.52s326.59,1.94,326.59,1.94c153.44.62,296.04,57.01,416.47,150.36,165.01,127.91,262.99,321.47,268.47,531.55l-.25,648.45-501.63-4.67-.18-632.49c-11.81-121.7-109.04-218.31-232.41-225.89L0,2611.06Z"/>
      <path class="cls-1" d="M5530.84.03l.12,485.61c-160.07-10.58-297.86,106.88-306.83,267.11l-.44,520.13-505.56-.07.88-636.96c.42-299.01,207.39-556.46,489.87-635.82l321.95.02Z"/>
      <path class="cls-10" d="M1574.68.05c1.28,3.94,3.86,5.82,8.9,8.41,91.21,46.79,163.06,120.4,204.15,214.87,19.31,44.4,31.87,89.44,31.92,139.45l.89,909.8-83.26-.46c-162.45-7.45-313.57-87.49-405.09-222.25-42.19-62.11-74.31-130.62-74.44-207.83L1257.03.02l317.64.03Z"/>
      <path class="cls-18" d="M4335.59.01c131.56,63.06,247.06,207.55,247.36,357.75l1.78,912.15c-168.87,17.92-336.19-44.5-447.12-167.36-57.6-63.79-97.48-138.54-111.89-222.71l-4.4-135.1L4022.44.03l313.15-.02Z"/>
      <path class="cls-16" d="M.03,2024.46l-.02-767.44,848.05,1,.52,184.47c.47,165.21-63.91,317.93-183.45,431.69-93.98,86.61-213.6,147.88-343,148.48L.03,2024.46Z"/>
      <path class="cls-1" d="M.04,5032.47l-.03-511.63,844.26,1.55-.8,175.61c-7.65,171.21-143.45,322.16-318.61,329.93L.04,5032.47Z"/>
      <g>
        <path class="cls-17" d="M1257.03.02l8.82,3.07,1.05,852.06c31.81,263.45,292.54,427.7,544.72,408.57l-.81-900.83c-15.46-160.56-94.05-276.16-238.7-351.46-1.25-4.1-.24-7.87,2.55-11.36l868.78-.04-15.25,13.71c-281.93,91.97-441.06,320.88-466.03,610.88l.89,636.54,2.96,3.04,481.48-.25,2.95-2.99.39-502.36c11.19-166.57,119.06-262.78,280.38-281.57l564.77-3.67c71.41-4.36,137.91-33.75,190.85-81.57,120.16-108.56,117.74-240.83,112.23-385.22l8.77-6.53h414.59s8.82,3.08,8.82,3.08c-2.99,293.93-1.92,585.82,3.2,875.67,55.55,252.99,287.7,404.2,541.44,382.74l-1.77-903.66c-2.92-147.29-104.99-276.81-231.36-344.41l-7.18-13.43h873.29l-14.76,13.56c-261.29,80.34-454.32,320.42-465.67,595.03l-1.49,652.33,2.94,3.05,482.01.07,2.96-2.95.44-508.71c22.01-173.56,133.38-271.67,306.81-278.58l-.11-468.41,8.82-5.37,4.43-.02v5535.26H0l.04-502.8,2.99-8.85,533.99-5.32c147.79-21.84,253.84-112.66,289.34-260.03,5.09-21.12,15.31-215.37,9.04-224.73-276.01-3.34-552.67-4.63-829.97-3.87l-5.42-8.83v-1909.77s4.09-8.8,4.09-8.8l273.37,1.72c138.71,18.65,218.98,95.31,240.79,234.07l.21,621.16,3.12,3.25,477.91,4.45,2.96-3.01.25-636.32c-5.63-356.2-301.73-656.94-656.48-672.89l-340.99-2.29-5.25-8.85.03-119.08,4.05-8.84,325.9-1.89c141.2-4.41,277.01-81.18,368.38-187.06,147.27-170.66,146.71-353.42,140.92-557.42-277.28-3.25-555.22-4.38-833.82-3.4L.01,1257.02.17,0l1256.86.02Z"/>
        <g>
          <path class="cls-18" d="M3273.66,2837.7c-13.78-127.25-117.55-225.96-243.43-225.96h-273.13s-32.12,4.58-32.12,4.58l-839.56,1.05c24.99-255.79,268.54-470.7,518.35-471.25l665.7-1.47c146.86-.32,283.7,42.82,403.36,124.78,195.73,134.07,309.35,354.65,302.02,593.45l.2,612.87-502.03-4.53.65-633.53Z"/>
          <path class="cls-15" d="M2727.82,5032.36c-144.33,1.04-258.81,120.08-267.42,259.82l-1.47,238.77-506.65-.05,1.53-364.89c12.53-360.61,312.32-643.59,671.9-643.62l983.45-.09-.78,171.03c-6.18,175.47-143.84,327.89-322.8,335.02l-557.77,4Z"/>
          <path class="cls-1" d="M5224.08,5296.9l-.23,234.01-506.28.02,1-355.97c8.56-362.82,306.5-650.92,668.41-652.14l143.95-.48-.08,508.13c-159.73-6.73-295.37,103.81-306.77,266.43Z"/>
          <path class="cls-14" d="M1820.16,2123.11l-902.18-.17,1.58-157.18c28.55-310.7,286.01-555.44,597.92-568.75l302.65-.54.03,726.65Z"/>
          <g>
            <path class="cls-4" d="M3308.78,1960.82c-75.87,39.81-150.97,61.16-234.66,62.89l-325.21-.63.07-765.54,863.96.76-.07,193.13c-.08,212.22-115.59,408.78-304.08,509.39Z"/>
            <path class="cls-4" d="M3465.94,4329.96c-75.87,39.81-150.97,61.16-234.66,62.89l-325.21-.63.07-765.54,863.96.76-.07,193.13c-.08,212.22-115.59,408.78-304.08,509.39Z"/>
            <path class="cls-9" d="M4583.64,2122.97l-901.26-.09-.23-137.57c19.76-320.61,280.25-575.09,601.21-588.61l300.21-.27.06,726.53Z"/>
          </g>
          <path class="cls-13" d="M1819.73,4895.13l.33,635.81-563.57-.09-.11-1016.21,177.32.93c107.6.56,203.63,56.7,276.85,133.78,62.93,68.29,101.57,150.23,109.18,245.77Z"/>
          <path class="cls-13" d="M4583.71,4893.19l.58,637.81-563.97-.17-.06-1015.83,160.94-.19c76.58-.09,146.24,24.1,210.04,65.15,108.14,69.75,180.4,180.89,192.47,313.24Z"/>
          <g>
            <path class="cls-15" d="M1792.99,3631.75c-208.99,14.69-410.09-88.12-500-280-24.03-51.28-34.65-101.36-34.63-159.11l.33-879.07c116.54,9.27,219.33,54.65,307.44,125.35,132.28,110.15,214.31,268.2,226.56,441.33l.3,751.51Z"/>
            <path class="cls-8" d="M1933.82,4349.85l-503.71.39c52.37-34.6,95.2-68.27,134.71-113.03,69.07-77.4,118.58-166.61,154.33-264.41,27.87-78.46,43.95-157.18,44.96-243.57l695.47-.07-4.15,134.46c-27.02,195.91-153.63,364.36-334.42,444.38-59.33,26.26-119.07,41.8-187.2,41.85Z"/>
          </g>
          <path class="cls-6" d="M3025.04,3475.12l-911.71.26c-26.28-274.64,194.49-514.32,471.46-504.14,261.05,9.59,463.12,238.1,440.24,503.88Z"/>
          <path class="cls-6" d="M1049.25,4339.15l-911.71.26c-26.28-274.64,194.49-514.32,471.46-504.14,261.05,9.59,463.12,238.1,440.24,503.88Z"/>
          <path class="cls-5" d="M5316.3,2616.92l-665.57.41c9.26-101.15,51.83-189.22,112.95-266.41,99.33-121.52,242.83-200.05,401.46-204.99l365.81-1.43v471.85s-214.65.57-214.65.57Z"/>
          <path class="cls-19" d="M5530.92,3475.32l-653.3.2c-11.82-130.8,30.1-258.02,118.24-353.81,135.06-150.62,353.8-193.93,535.15-104.7l-.09,458.31Z"/>
          <circle class="cls-21" cx="1229.36" cy="4009.74" r="89.21"/>
          <circle class="cls-20" cx="2344.5" cy="1714.44" r="89.05"/>
          <circle class="cls-2" cx="5112.84" cy="1714.58" r="89.06"/>
          <circle class="cls-21" cx="3249.3" cy="5403.18" r="88.78"/>
          <circle class="cls-22" cx="3993.41" cy="4009.77" r="88.86"/>
          <circle class="cls-12" cx="3249.61" cy="861.32" r="88.89"/>
          <circle class="cls-11" cx="484.08" cy="861.37" r="88.8"/>
          <circle class="cls-3" cx="483.9" cy="5403.15" r="88.61"/>
          <g>
            <path class="cls-1" d="M4557.11,3631.88c-210.68,15.28-417.67-91.01-503.34-288.9-19.84-45.82-31.33-90.32-31.35-141.67l-.32-887.17c91.41,5.8,175.33,36.15,252.27,84.96,167.15,106.06,270.97,286.85,282.62,485.59l.12,747.19Z"/>
            <path class="cls-8" d="M4699.39,4349.7l-504.07.35c62.07-41.07,112.59-83.51,156.8-139.25,52.28-64.89,91.44-135.4,121.44-213.56,34.01-85.6,52.31-173.12,54.42-268.21h696.25s-4.03,129.51-4.03,129.51c-22.78,174.24-122.88,326.8-273.39,417.9-74.56,45.13-156.13,73.2-247.42,73.27Z"/>
          </g>
        </g>
      </g>
    </g>
  </g>
</svg>