<svg xmlns="http://www.w3.org/2000/svg" xmlns:xlink="http://www.w3.org/1999/xlink" width="546.14" height="286.55" viewBox="266.79 396.21 546.14 286.55">
<path fill-rule="nonzero" fill="rgb(18.431091%, 15.686035%, 12.940979%)" fill-opacity="1" d="M 525.121094 489.710938 C 526.289062 489.441406 526.867188 488.710938 526.625 487.824219 C 521.09375 467.464844 496.113281 461.777344 478.226562 470.851562 C 466.582031 476.761719 459.636719 488.804688 460.113281 502.203125 C 482.199219 498.75 503.519531 494.707031 525.121094 489.710938 M 480.816406 536.382812 C 496.730469 543.105469 516.390625 540.230469 530.925781 530.792969 C 532.511719 529.761719 535.113281 528.980469 536.410156 530.539062 L 542.789062 538.203125 C 544.1875 539.878906 543.945312 542.324219 542.148438 543.71875 C 534.507812 549.644531 525.871094 553.582031 516.28125 555.664062 C 504.164062 558.289062 491.757812 558.464844 479.703125 555.601562 C 454.589844 549.636719 438.902344 529.394531 438.632812 503.660156 C 438.375 479.425781 453.773438 458.511719 477.1875 451.96875 C 494.214844 447.214844 514.078125 448.527344 528.949219 458.875 C 540.828125 467.144531 547.757812 480.519531 547.832031 495.019531 C 547.84375 496.921875 546.640625 498.433594 545.164062 499.394531 C 537.617188 504.316406 513.496094 509.800781 502.9375 511.585938 L 463.019531 518.339844 C 466.328125 526.785156 472.613281 532.917969 480.816406 536.382812 "/>
<path fill-rule="nonzero" fill="rgb(18.431091%, 15.686035%, 12.940979%)" fill-opacity="1" d="M 740.757812 554.210938 C 720.25 561.164062 686.824219 558.339844 671.621094 541.160156 C 670.769531 540.191406 670.679688 537.929688 671.480469 537.027344 L 678.117188 529.5625 C 679.722656 527.757812 682.574219 527.484375 684.667969 529.058594 C 694.484375 536.460938 706.167969 540.210938 718.578125 540.152344 C 726.730469 540.113281 737.347656 538.335938 740.589844 531.019531 C 742.730469 526.191406 740.796875 521.144531 736.109375 518.78125 C 732.121094 516.777344 727.914062 515.734375 723.472656 514.734375 L 699.136719 509.246094 C 693.457031 507.964844 688.363281 505.566406 683.726562 502.277344 C 676.75 497.332031 673.34375 489.886719 673.492188 481.457031 C 673.765625 465.992188 684.339844 456 698.703125 451.898438 C 714.488281 447.390625 734.875 449.074219 749.609375 456.457031 C 754.03125 458.675781 759.53125 462.359375 756.972656 465.734375 L 751.460938 473.003906 C 750.265625 474.582031 748.046875 475.417969 746.0625 474.308594 C 735.800781 468.578125 724.101562 465.816406 712.296875 466.945312 C 707.589844 467.398438 703.25 468.636719 699.4375 471.238281 C 695.046875 474.234375 693.011719 479.972656 695.707031 484.671875 C 699.109375 490.617188 711.839844 492.804688 719.585938 494.601562 L 737.546875 498.765625 C 742.71875 499.964844 747.425781 502 751.824219 504.847656 C 758.179688 508.960938 762.015625 515.230469 762.847656 522.746094 C 764.539062 538.070312 755.097656 549.347656 740.757812 554.210938 "/>
<path fill-rule="nonzero" fill="rgb(18.431091%, 15.686035%, 12.940979%)" fill-opacity="1" d="M 631.191406 555.042969 C 610.960938 560.738281 580.503906 557.820312 565.367188 542.105469 C 564.042969 540.726562 563.160156 538.503906 564.476562 536.96875 L 570.746094 529.644531 C 572.320312 527.804688 575.214844 527.4375 577.296875 528.992188 C 586.996094 536.25 598.496094 540.152344 610.714844 540.167969 C 619.394531 540.179688 630.722656 538.484375 633.765625 530.351562 C 635.375 526.042969 633.804688 521.632812 629.851562 519.3125 C 626.445312 517.3125 622.792969 516.144531 618.875 515.269531 L 595.195312 509.992188 C 585.386719 507.804688 573.53125 502.777344 569.089844 493.6875 C 563.675781 482.613281 566.300781 469 575.398438 460.675781 C 590.242188 447.101562 616.585938 447.277344 635.082031 453.351562 C 641.21875 455.371094 653.25 460.988281 649.800781 465.648438 L 644.414062 472.929688 C 643.117188 474.683594 640.796875 475.332031 638.761719 474.199219 C 628.226562 468.3125 616.21875 465.632812 604.144531 467.0625 C 599.375 467.628906 594.808594 469.09375 591.222656 472.105469 C 587.226562 475.464844 586.097656 481.308594 589.207031 485.445312 C 591.140625 488.019531 594.03125 489.695312 597.082031 490.472656 L 615.78125 495.25 L 633.5 499.652344 C 638.527344 500.902344 642.933594 503.425781 646.925781 506.550781 C 652.894531 511.21875 655.605469 517.828125 655.78125 525.300781 C 656.144531 540.902344 645.667969 550.964844 631.191406 555.042969 "/>
<path fill-rule="nonzero" fill="rgb(18.431091%, 15.686035%, 12.940979%)" fill-opacity="1" d="M 312.976562 468.949219 L 312.949219 552.007812 C 312.949219 553.722656 311.71875 555.234375 310.0625 555.242188 L 294.808594 555.316406 C 293.578125 555.320312 291.632812 554.4375 291.628906 552.90625 L 291.546875 497.664062 L 291.589844 468.960938 L 279.433594 468.929688 C 277.714844 468.925781 275.226562 468.042969 275.101562 465.984375 C 274.785156 460.800781 277.992188 455.785156 282.691406 453.761719 C 285.542969 452.53125 288.386719 452.867188 291.644531 452.769531 C 291.523438 445.390625 292.179688 438.578125 294.832031 431.972656 C 299.113281 421.308594 307.234375 413 318.011719 408.914062 C 328.003906 405.125 338.667969 404.207031 349.074219 406.46875 C 352.84375 407.289062 356.402344 408.683594 359.226562 411.203125 C 360.507812 412.34375 360.007812 414.683594 359.257812 415.9375 L 354.601562 423.710938 C 353.605469 425.371094 351.417969 426.121094 349.441406 425.472656 C 343 423.355469 336.390625 422.929688 329.886719 424.734375 C 317.085938 428.292969 312.09375 439.566406 313.082031 452.792969 L 343.792969 452.820312 C 345.472656 452.820312 347.085938 454.046875 347.359375 455.664062 C 347.78125 458.164062 347.226562 460.554688 346.539062 462.941406 C 345.523438 466.496094 342.519531 468.9375 338.738281 468.925781 Z M 312.976562 468.949219 "/>
<path fill-rule="nonzero" fill="rgb(18.431091%, 15.686035%, 12.940979%)" fill-opacity="1" d="M 384.492188 497.886719 L 384.476562 551.960938 C 384.476562 553.835938 383.152344 555.273438 381.320312 555.273438 L 366.078125 555.265625 C 364.199219 555.261719 363.074219 553.550781 363.078125 551.660156 L 363.1875 495.128906 C 363.226562 474.921875 374.40625 456.730469 394.390625 451.566406 C 401.195312 449.808594 408.042969 449.078125 415.054688 449.582031 C 420.832031 450 426.363281 450.785156 431.5625 453.054688 C 434.007812 454.125 435.195312 456.285156 434.003906 458.738281 L 429.558594 467.894531 C 428.617188 469.828125 426.707031 470.671875 424.539062 470.121094 C 417.109375 468.226562 409.601562 467.960938 402.261719 470.3125 C 390.261719 474.160156 384.496094 485.15625 384.492188 497.886719 "/>
<path fill-rule="nonzero" fill="rgb(18.431091%, 15.686035%, 12.940979%)" fill-opacity="1" d="M 804.921875 424.339844 C 804.921875 431.601562 799.023438 437.492188 791.75 437.492188 C 784.476562 437.492188 778.582031 431.601562 778.582031 424.339844 C 778.582031 417.078125 784.476562 411.1875 791.75 411.1875 C 799.023438 411.1875 804.921875 417.078125 804.921875 424.339844 "/>
<path fill-rule="nonzero" fill="rgb(18.431091%, 15.686035%, 12.940979%)" fill-opacity="1" d="M 794.949219 452.941406 L 787.300781 452.867188 L 787.300781 452.851562 L 781.132812 452.851562 L 781.132812 552.355469 C 781.132812 554.238281 783.078125 555.316406 784.644531 555.300781 L 799.1875 555.175781 C 800.976562 555.160156 802.210938 553.558594 802.214844 551.867188 L 802.265625 461.078125 C 802.269531 456.542969 799.601562 452.984375 794.949219 452.941406 "/>
<path fill-rule="nonzero" fill="rgb(0%, 50.588989%, 67.059326%)" fill-opacity="1" d="M 310.433594 674.550781 C 305.554688 674.550781 301.125 673.765625 297.148438 672.195312 C 293.171875 670.625 289.78125 668.351562 286.972656 665.375 C 284.164062 662.402344 282.023438 658.742188 280.554688 654.398438 C 279.085938 650.050781 278.347656 645.105469 278.347656 639.558594 C 278.347656 635.011719 278.882812 630.265625 279.953125 625.316406 C 281.019531 620.371094 282.609375 615.457031 284.714844 610.578125 C 286.824219 605.699219 289.445312 601.070312 292.585938 596.691406 C 295.726562 592.3125 299.390625 588.417969 303.566406 585.007812 C 307.742188 581.597656 312.40625 578.925781 317.554688 576.984375 C 322.703125 575.046875 328.351562 574.078125 334.503906 574.078125 C 338.644531 574.078125 342.40625 574.515625 345.78125 575.382812 C 349.15625 576.25 352.164062 577.554688 354.808594 579.292969 C 357.445312 581.03125 359.632812 583.167969 361.375 585.710938 C 361.90625 586.511719 362.027344 587.214844 361.726562 587.816406 C 361.421875 588.417969 360.773438 589.085938 359.769531 589.820312 C 358.902344 590.488281 358.117188 590.839844 357.414062 590.875 C 356.710938 590.910156 355.894531 590.488281 354.957031 589.621094 C 352.683594 587.414062 349.742188 585.695312 346.132812 584.457031 C 342.523438 583.21875 338.175781 582.601562 333.097656 582.601562 C 328.550781 582.601562 324.289062 583.402344 320.3125 585.007812 C 316.335938 586.613281 312.675781 588.816406 309.332031 591.625 C 305.988281 594.433594 302.980469 597.675781 300.308594 601.351562 C 297.632812 605.03125 295.359375 608.972656 293.488281 613.183594 C 291.617188 617.394531 290.195312 621.691406 289.226562 626.070312 C 288.257812 630.449219 287.773438 634.742188 287.773438 638.953125 C 287.773438 643.566406 288.324219 647.628906 289.429688 651.136719 C 290.53125 654.648438 292.101562 657.554688 294.140625 659.863281 C 296.179688 662.167969 298.652344 663.90625 301.5625 665.074219 C 304.46875 666.246094 307.761719 666.832031 311.4375 666.832031 C 312.441406 666.832031 313.144531 667.214844 313.542969 667.984375 C 313.945312 668.753906 314.078125 669.65625 313.945312 670.691406 C 313.808594 671.726562 313.445312 672.632812 312.84375 673.398438 C 312.242188 674.164062 311.4375 674.550781 310.433594 674.550781 "/>
<path fill-rule="nonzero" fill="rgb(0%, 50.588989%, 67.059326%)" fill-opacity="1" d="M 310.4375 674.550781 C 309.433594 674.550781 308.730469 674.164062 308.332031 673.398438 C 307.929688 672.632812 307.796875 671.726562 307.929688 670.691406 C 308.066406 669.65625 308.433594 668.753906 309.03125 667.984375 C 309.636719 667.214844 310.4375 666.832031 311.441406 666.832031 C 315.785156 666.832031 320.0625 666.246094 324.273438 665.074219 C 328.484375 663.90625 332.5625 662.1875 336.507812 659.910156 C 340.453125 657.640625 344.214844 654.847656 347.789062 651.539062 C 351.363281 648.230469 354.625 644.46875 357.566406 640.257812 C 358.097656 639.523438 358.835938 639.289062 359.773438 639.558594 C 360.707031 639.824219 361.457031 640.375 362.027344 641.210938 C 362.59375 642.046875 362.613281 642.867188 362.074219 643.667969 C 358.933594 648.613281 355.390625 652.992188 351.445312 656.804688 C 347.503906 660.613281 343.292969 663.839844 338.8125 666.480469 C 334.335938 669.121094 329.726562 671.125 324.976562 672.496094 C 320.230469 673.867188 315.382812 674.550781 310.4375 674.550781 "/>
<path fill-rule="nonzero" fill="rgb(0%, 50.588989%, 67.059326%)" fill-opacity="1" d="M 374.007812 666.730469 C 377.285156 666.730469 380.160156 665.863281 382.632812 664.125 C 385.105469 662.386719 387.179688 660.164062 388.847656 657.457031 C 390.519531 654.746094 391.792969 651.90625 392.660156 648.933594 C 393.527344 645.957031 393.964844 643.203125 393.964844 640.660156 C 393.964844 638.050781 393.527344 635.878906 392.660156 634.140625 C 391.792969 632.402344 390.554688 631.082031 388.949219 630.179688 C 387.347656 629.277344 385.441406 628.828125 383.238281 628.828125 C 379.890625 628.828125 376.949219 629.679688 374.410156 631.382812 C 371.867188 633.089844 369.746094 635.28125 368.042969 637.953125 C 366.339844 640.625 365.050781 643.433594 364.183594 646.375 C 363.3125 649.316406 362.878906 652.023438 362.878906 654.496094 C 362.878906 657.105469 363.332031 659.328125 364.230469 661.164062 C 365.132812 663.003906 366.421875 664.390625 368.09375 665.328125 C 369.761719 666.261719 371.734375 666.730469 374.007812 666.730469 M 373.007812 674.753906 C 368.863281 674.753906 365.351562 673.914062 362.476562 672.246094 C 359.601562 670.574219 357.449219 668.25 356.011719 665.277344 C 354.574219 662.300781 353.855469 658.945312 353.855469 655.199219 C 353.855469 651.65625 354.492188 647.898438 355.757812 643.917969 C 357.027344 639.941406 358.917969 636.199219 361.425781 632.6875 C 363.933594 629.179688 367.074219 626.320312 370.851562 624.113281 C 374.628906 621.910156 379.023438 620.804688 384.039062 620.804688 C 388.179688 620.804688 391.675781 621.59375 394.515625 623.160156 C 397.355469 624.734375 399.492188 626.941406 400.933594 629.78125 C 402.371094 632.621094 403.089844 635.914062 403.089844 639.65625 C 403.089844 642.332031 402.703125 645.257812 401.933594 648.429688 C 401.167969 651.605469 399.996094 654.746094 398.425781 657.855469 C 396.855469 660.964844 394.867188 663.789062 392.460938 666.328125 C 390.054688 668.871094 387.226562 670.910156 383.988281 672.445312 C 380.742188 673.984375 377.082031 674.753906 373.007812 674.753906 "/>
<path fill-rule="nonzero" fill="rgb(0%, 50.588989%, 67.059326%)" fill-opacity="1" d="M 409.304688 633.640625 C 407.167969 633.640625 404.625 633.339844 401.683594 632.738281 C 398.742188 632.136719 395.734375 631 392.660156 629.328125 C 391.925781 628.925781 391.472656 628.328125 391.308594 627.523438 C 391.140625 626.722656 391.207031 625.9375 391.503906 625.167969 C 391.808594 624.398438 392.257812 623.8125 392.859375 623.414062 C 393.460938 623.011719 394.097656 622.976562 394.765625 623.3125 C 397.171875 624.582031 399.695312 625.46875 402.335938 625.96875 C 404.980469 626.472656 407.5 626.722656 409.90625 626.722656 C 412.246094 626.722656 414.636719 626.386719 417.074219 625.71875 C 419.515625 625.050781 421.921875 623.949219 424.296875 622.410156 C 426.667969 620.875 428.890625 618.765625 430.960938 616.09375 C 431.699219 615.226562 432.449219 615.023438 433.21875 615.492188 C 433.988281 615.960938 434.558594 616.695312 434.925781 617.699219 C 435.289062 618.699219 435.140625 619.601562 434.472656 620.40625 C 431.667969 623.8125 428.824219 626.472656 425.949219 628.375 C 423.074219 630.28125 420.234375 631.636719 417.425781 632.4375 C 414.621094 633.238281 411.910156 633.640625 409.304688 633.640625 "/>
<path fill-rule="nonzero" fill="rgb(0%, 50.588989%, 67.059326%)" fill-opacity="1" d="M 426.152344 674.550781 C 423.675781 674.550781 421.636719 674.117188 420.035156 673.246094 C 418.429688 672.378906 417.226562 671.160156 416.425781 669.589844 C 415.625 668.019531 415.234375 666.230469 415.269531 664.222656 C 415.304688 662.21875 415.722656 660.011719 416.523438 657.605469 L 442.695312 577.285156 C 443.164062 575.949219 443.714844 575.082031 444.351562 574.679688 C 444.984375 574.277344 445.9375 574.078125 447.207031 574.078125 C 449.347656 574.078125 450.683594 574.394531 451.21875 575.03125 C 451.753906 575.667969 451.820312 576.652344 451.417969 577.988281 L 425.148438 658.507812 C 424.078125 661.71875 423.84375 663.941406 424.445312 665.175781 C 425.046875 666.414062 426.417969 667.03125 428.558594 667.03125 C 429.492188 667.03125 430.160156 667.417969 430.5625 668.183594 C 430.964844 668.953125 431.078125 669.824219 430.914062 670.792969 C 430.746094 671.761719 430.261719 672.632812 429.460938 673.398438 C 428.65625 674.164062 427.554688 674.550781 426.152344 674.550781 "/>
<path fill-rule="nonzero" fill="rgb(0%, 50.588989%, 67.059326%)" fill-opacity="1" d="M 425.851562 674.550781 C 424.914062 674.550781 424.230469 674.164062 423.792969 673.398438 C 423.359375 672.632812 423.226562 671.761719 423.394531 670.792969 C 423.5625 669.824219 424.042969 668.953125 424.84375 668.183594 C 425.648438 667.417969 426.75 667.03125 428.152344 667.03125 C 430.292969 667.03125 432.414062 666.515625 434.523438 665.476562 C 436.625 664.441406 438.78125 662.917969 440.988281 660.914062 C 443.195312 658.910156 445.464844 656.351562 447.808594 653.242188 C 450.148438 650.136719 452.621094 646.542969 455.230469 642.464844 C 455.828125 641.527344 456.464844 641.09375 457.132812 641.160156 C 457.800781 641.226562 458.300781 641.578125 458.640625 642.214844 C 458.972656 642.851562 458.9375 643.566406 458.539062 644.371094 C 455.929688 649.519531 453.339844 653.980469 450.765625 657.757812 C 448.191406 661.53125 445.585938 664.660156 442.945312 667.132812 C 440.304688 669.605469 437.5625 671.460938 434.722656 672.695312 C 431.882812 673.933594 428.925781 674.550781 425.851562 674.550781 "/>
<path fill-rule="nonzero" fill="rgb(0%, 50.588989%, 67.059326%)" fill-opacity="1" d="M 458.636719 674.550781 C 456.164062 674.550781 454.125 674.117188 452.523438 673.246094 C 450.917969 672.378906 449.714844 671.160156 448.910156 669.589844 C 448.109375 668.019531 447.722656 666.230469 447.757812 664.222656 C 447.792969 662.21875 448.210938 660.011719 449.011719 657.605469 L 475.183594 577.285156 C 475.648438 575.949219 476.199219 575.082031 476.839844 574.679688 C 477.472656 574.277344 478.425781 574.078125 479.695312 574.078125 C 481.832031 574.078125 483.171875 574.394531 483.707031 575.03125 C 484.242188 575.667969 484.308594 576.652344 483.90625 577.988281 L 457.636719 658.507812 C 456.566406 661.71875 456.332031 663.941406 456.933594 665.175781 C 457.535156 666.414062 458.90625 667.03125 461.046875 667.03125 C 461.980469 667.03125 462.648438 667.417969 463.050781 668.183594 C 463.449219 668.953125 463.566406 669.824219 463.402344 670.792969 C 463.234375 671.761719 462.75 672.632812 461.949219 673.398438 C 461.144531 674.164062 460.039062 674.550781 458.636719 674.550781 "/>
<path fill-rule="nonzero" fill="rgb(0%, 50.588989%, 67.059326%)" fill-opacity="1" d="M 458.339844 674.550781 C 457.402344 674.550781 456.71875 674.164062 456.28125 673.398438 C 455.847656 672.632812 455.714844 671.761719 455.882812 670.792969 C 456.050781 669.824219 456.53125 668.953125 457.335938 668.183594 C 458.136719 667.417969 459.242188 667.03125 460.644531 667.03125 C 461.980469 667.03125 463.667969 666.664062 465.710938 665.929688 C 467.75 665.191406 470.121094 664.125 472.828125 662.71875 C 475.535156 661.316406 478.527344 659.542969 481.804688 657.40625 C 482.671875 656.871094 483.4375 656.769531 484.105469 657.105469 C 484.777344 657.441406 485.3125 658.007812 485.714844 658.808594 C 486.113281 659.609375 486.230469 660.480469 486.0625 661.414062 C 485.894531 662.351562 485.410156 663.089844 484.609375 663.621094 C 480.597656 666.230469 477.019531 668.335938 473.878906 669.9375 C 470.738281 671.542969 467.898438 672.714844 465.355469 673.449219 C 462.816406 674.183594 460.476562 674.550781 458.339844 674.550781 "/>
<path fill-rule="nonzero" fill="rgb(0%, 50.588989%, 67.059326%)" fill-opacity="1" d="M 485.3125 656.101562 C 489.054688 654.03125 492.445312 651.957031 495.488281 649.882812 C 498.53125 647.8125 501.152344 645.773438 503.359375 643.769531 C 505.566406 641.761719 507.273438 639.839844 508.476562 638.003906 C 509.675781 636.164062 510.28125 634.441406 510.28125 632.839844 C 510.28125 631.433594 509.910156 630.417969 509.175781 629.78125 C 508.441406 629.144531 507.4375 628.828125 506.167969 628.828125 C 503.226562 628.828125 500.636719 629.648438 498.398438 631.285156 C 496.15625 632.921875 494.25 634.992188 492.679688 637.5 C 491.109375 640.007812 489.941406 642.582031 489.171875 645.222656 C 488.402344 647.863281 488.019531 650.152344 488.019531 652.089844 C 488.019531 654.832031 488.386719 657.15625 489.125 659.058594 C 489.855469 660.964844 490.878906 662.488281 492.179688 663.621094 C 493.484375 664.757812 494.953125 665.59375 496.59375 666.128906 C 498.230469 666.664062 499.917969 666.929688 501.65625 666.929688 C 502.589844 666.929688 503.242188 667.316406 503.609375 668.085938 C 503.976562 668.855469 504.113281 669.753906 504.011719 670.792969 C 503.914062 671.828125 503.5625 672.730469 502.960938 673.5 C 502.355469 674.265625 501.554688 674.652344 500.554688 674.652344 C 495.941406 674.652344 492.03125 673.816406 488.820312 672.144531 C 485.613281 670.472656 483.171875 667.96875 481.503906 664.625 C 479.828125 661.28125 478.992188 657.203125 478.992188 652.390625 C 478.992188 649.25 479.613281 645.875 480.847656 642.261719 C 482.085938 638.652344 483.910156 635.210938 486.3125 631.9375 C 488.722656 628.660156 491.710938 625.988281 495.289062 623.914062 C 498.863281 621.84375 502.960938 620.804688 507.570312 620.804688 C 509.710938 620.804688 511.667969 621.207031 513.4375 622.007812 C 515.207031 622.8125 516.613281 623.980469 517.648438 625.519531 C 518.683594 627.054688 519.203125 628.960938 519.203125 631.234375 C 519.203125 634.109375 518.449219 636.882812 516.949219 639.554688 C 515.445312 642.230469 513.304688 644.855469 510.53125 647.425781 C 507.753906 650 504.464844 652.558594 500.652344 655.097656 C 496.84375 657.640625 492.632812 660.210938 488.019531 662.820312 Z M 485.3125 656.101562 "/>
<path fill-rule="nonzero" fill="rgb(0%, 50.588989%, 67.059326%)" fill-opacity="1" d="M 500.554688 674.652344 C 499.617188 674.652344 498.964844 674.265625 498.597656 673.5 C 498.230469 672.730469 498.113281 671.828125 498.246094 670.792969 C 498.382812 669.757812 498.746094 668.855469 499.347656 668.082031 C 499.949219 667.316406 500.722656 666.929688 501.65625 666.929688 C 505.199219 666.929688 508.640625 666.046875 511.984375 664.273438 C 515.328125 662.503906 518.550781 659.878906 521.660156 656.402344 C 524.769531 652.925781 527.691406 648.714844 530.433594 643.769531 C 530.769531 643.234375 531.386719 642.984375 532.289062 643.015625 C 533.191406 643.050781 533.992188 643.285156 534.695312 643.71875 C 535.398438 644.152344 535.582031 644.671875 535.246094 645.273438 C 532.304688 651.558594 529.03125 656.871094 525.417969 661.214844 C 521.8125 665.5625 517.917969 668.886719 513.738281 671.191406 C 509.5625 673.5 505.164062 674.652344 500.554688 674.652344 "/>
<path fill-rule="nonzero" fill="rgb(0%, 50.588989%, 67.059326%)" fill-opacity="1" d="M 550.085938 674.550781 C 542.667969 674.550781 537.136719 672.632812 533.492188 668.785156 C 529.847656 664.941406 528.027344 659.980469 528.027344 653.894531 C 528.027344 650.351562 528.679688 646.660156 529.984375 642.816406 C 531.285156 638.972656 533.207031 635.378906 535.75 632.035156 C 538.289062 628.695312 541.449219 625.988281 545.226562 623.914062 C 549 621.84375 553.328125 620.804688 558.210938 620.804688 C 562.152344 620.804688 565.480469 621.40625 568.1875 622.609375 C 570.894531 623.8125 573.25 625.585938 575.257812 627.925781 C 576.257812 629.128906 576.609375 630.148438 576.308594 630.984375 C 576.007812 631.820312 575.457031 632.605469 574.652344 633.339844 C 573.785156 634.007812 572.914062 634.390625 572.046875 634.492188 C 571.179688 634.59375 570.277344 634.140625 569.339844 633.140625 C 568.070312 631.734375 566.496094 630.667969 564.628906 629.929688 C 562.757812 629.195312 560.316406 628.828125 557.308594 628.828125 C 553.964844 628.828125 551.023438 629.664062 548.484375 631.332031 C 545.941406 633.007812 543.820312 635.160156 542.117188 637.800781 C 540.410156 640.441406 539.140625 643.214844 538.304688 646.125 C 537.46875 649.03125 537.054688 651.757812 537.054688 654.296875 C 537.054688 656.4375 537.503906 658.476562 538.40625 660.414062 C 539.308594 662.351562 540.792969 663.90625 542.867188 665.074219 C 544.9375 666.246094 547.683594 666.832031 551.089844 666.832031 C 552.027344 666.832031 552.679688 667.214844 553.046875 667.984375 C 553.410156 668.753906 553.53125 669.65625 553.394531 670.691406 C 553.261719 671.726562 552.910156 672.632812 552.34375 673.398438 C 551.773438 674.164062 551.023438 674.550781 550.085938 674.550781 "/>
<path fill-rule="nonzero" fill="rgb(0%, 50.588989%, 67.059326%)" fill-opacity="1" d="M 549.484375 674.550781 C 548.886719 674.550781 548.453125 674.164062 548.183594 673.398438 C 547.917969 672.632812 547.832031 671.726562 547.933594 670.691406 C 548.035156 669.65625 548.300781 668.753906 548.734375 667.984375 C 549.167969 667.214844 549.789062 666.832031 550.589844 666.832031 C 555 666.832031 559.5625 665.695312 564.277344 663.421875 C 568.992188 661.148438 573.667969 657.992188 578.316406 653.945312 C 582.960938 649.902344 587.355469 645.171875 591.5 639.757812 C 591.96875 639.15625 592.570312 638.988281 593.304688 639.257812 C 594.042969 639.523438 594.640625 640.007812 595.109375 640.710938 C 595.578125 641.410156 595.578125 642.097656 595.109375 642.765625 C 590.699219 649.382812 585.9375 655.066406 580.824219 659.8125 C 575.710938 664.558594 570.460938 668.203125 565.082031 670.742188 C 559.699219 673.28125 554.5 674.550781 549.484375 674.550781 "/>
<path fill-rule="nonzero" fill="rgb(0%, 50.588989%, 67.059326%)" fill-opacity="1" d="M 599.421875 674.550781 C 596.148438 674.550781 593.355469 673.984375 591.050781 672.847656 C 588.742188 671.710938 586.988281 670.105469 585.785156 668.035156 C 584.582031 665.964844 583.945312 663.507812 583.878906 660.664062 C 583.8125 657.824219 584.347656 654.699219 585.484375 651.289062 L 592.203125 630.730469 L 584.28125 630.730469 C 583.546875 630.730469 583.042969 630.398438 582.777344 629.730469 C 582.507812 629.0625 582.542969 628.058594 582.878906 626.722656 C 583.28125 625.386719 583.8125 624.382812 584.480469 623.714844 C 585.148438 623.046875 585.816406 622.710938 586.488281 622.710938 L 594.8125 622.710938 L 601.226562 602.855469 C 601.628906 601.519531 602.144531 600.652344 602.78125 600.25 C 603.417969 599.847656 604.402344 599.648438 605.738281 599.648438 C 607.8125 599.648438 609.128906 599.964844 609.699219 600.601562 C 610.265625 601.238281 610.316406 602.222656 609.851562 603.558594 L 603.632812 622.710938 L 616.269531 622.710938 C 617.003906 622.710938 617.519531 623.027344 617.824219 623.664062 C 618.125 624.300781 618.074219 625.316406 617.671875 626.722656 C 617.335938 627.992188 616.835938 628.976562 616.167969 629.679688 C 615.5 630.382812 614.796875 630.730469 614.0625 630.730469 L 601.128906 630.730469 L 594.109375 652.289062 C 593.304688 654.699219 592.90625 656.839844 592.90625 658.707031 C 592.90625 660.582031 593.253906 662.136719 593.957031 663.371094 C 594.660156 664.609375 595.679688 665.527344 597.015625 666.128906 C 598.355469 666.730469 599.957031 667.03125 601.828125 667.03125 C 602.765625 667.03125 603.417969 667.417969 603.785156 668.183594 C 604.152344 668.953125 604.269531 669.824219 604.136719 670.792969 C 604 671.761719 603.535156 672.632812 602.730469 673.398438 C 601.929688 674.164062 600.828125 674.550781 599.421875 674.550781 "/>
<path fill-rule="nonzero" fill="rgb(0%, 50.588989%, 67.059326%)" fill-opacity="1" d="M 599.722656 674.550781 C 598.785156 674.550781 598.101562 674.164062 597.664062 673.398438 C 597.234375 672.632812 597.101562 671.761719 597.265625 670.792969 C 597.433594 669.824219 597.917969 668.953125 598.71875 668.183594 C 599.523438 667.417969 600.625 667.03125 602.027344 667.03125 C 604.035156 667.03125 606.058594 666.597656 608.09375 665.726562 C 610.136719 664.859375 612.191406 663.507812 614.261719 661.667969 C 616.332031 659.828125 618.488281 657.539062 620.730469 654.796875 C 622.96875 652.058594 625.257812 648.816406 627.597656 645.070312 C 628.199219 644.203125 628.902344 643.800781 629.703125 643.867188 C 630.507812 643.9375 631.125 644.285156 631.558594 644.921875 C 631.992188 645.558594 632.007812 646.273438 631.609375 647.078125 C 629.203125 651.757812 626.726562 655.835938 624.1875 659.308594 C 621.648438 662.785156 619.054688 665.644531 616.417969 667.882812 C 613.777344 670.125 611.070312 671.792969 608.296875 672.898438 C 605.523438 674 602.664062 674.550781 599.722656 674.550781 "/>
<path fill-rule="nonzero" fill="rgb(0%, 50.588989%, 67.059326%)" fill-opacity="1" d="M 644.34375 605.765625 C 643.003906 605.765625 641.871094 605.332031 640.933594 604.460938 C 639.996094 603.59375 639.53125 602.324219 639.53125 600.652344 C 639.53125 598.84375 640.117188 597.140625 641.285156 595.535156 C 642.457031 593.933594 644.277344 593.128906 646.75 593.128906 C 648.152344 593.128906 649.324219 593.546875 650.257812 594.382812 C 651.195312 595.21875 651.664062 596.507812 651.664062 598.242188 C 651.664062 600.046875 651.078125 601.753906 649.910156 603.359375 C 648.738281 604.960938 646.882812 605.765625 644.34375 605.765625 M 632.511719 674.550781 C 630.039062 674.550781 627.980469 674.117188 626.34375 673.246094 C 624.707031 672.378906 623.503906 671.160156 622.734375 669.585938 C 621.964844 668.019531 621.582031 666.230469 621.582031 664.222656 C 621.582031 662.21875 621.984375 660.011719 622.785156 657.605469 L 633.617188 624.414062 C 634.082031 623.078125 634.632812 622.210938 635.269531 621.808594 C 635.90625 621.40625 636.855469 621.207031 638.128906 621.207031 C 640.199219 621.207031 641.519531 621.523438 642.089844 622.160156 C 642.65625 622.796875 642.703125 623.78125 642.238281 625.117188 L 631.410156 658.507812 C 630.269531 661.714844 630.003906 663.941406 630.605469 665.175781 C 631.207031 666.414062 632.613281 667.03125 634.820312 667.03125 C 635.753906 667.03125 636.421875 667.417969 636.824219 668.183594 C 637.222656 668.953125 637.339844 669.824219 637.175781 670.792969 C 637.007812 671.761719 636.539062 672.628906 635.769531 673.398438 C 635.003906 674.167969 633.917969 674.550781 632.511719 674.550781 "/>
<path fill-rule="nonzero" fill="rgb(0%, 50.588989%, 67.059326%)" fill-opacity="1" d="M 632.414062 674.550781 C 631.476562 674.550781 630.792969 674.164062 630.355469 673.398438 C 629.921875 672.632812 629.789062 671.761719 629.957031 670.792969 C 630.125 669.824219 630.609375 668.953125 631.410156 668.183594 C 632.210938 667.417969 633.316406 667.03125 634.71875 667.03125 C 636.457031 667.03125 638.210938 666.664062 639.984375 665.929688 C 641.753906 665.191406 643.507812 664.109375 645.25 662.667969 C 646.984375 661.234375 648.589844 659.511719 650.0625 657.507812 C 651.53125 655.5 652.835938 653.261719 653.96875 650.785156 C 654.304688 649.785156 654.890625 649.300781 655.726562 649.332031 C 656.5625 649.367188 657.296875 649.699219 657.933594 650.335938 C 658.566406 650.972656 658.75 651.757812 658.484375 652.691406 C 657.28125 656.101562 655.742188 659.160156 653.871094 661.867188 C 652 664.574219 649.925781 666.863281 647.652344 668.734375 C 645.382812 670.609375 642.941406 672.042969 640.332031 673.046875 C 637.726562 674.050781 635.085938 674.550781 632.414062 674.550781 "/>
<path fill-rule="nonzero" fill="rgb(0%, 50.588989%, 67.059326%)" fill-opacity="1" d="M 673.324219 666.730469 C 676.597656 666.730469 679.472656 665.863281 681.949219 664.125 C 684.417969 662.386719 686.492188 660.164062 688.164062 657.457031 C 689.835938 654.746094 691.105469 651.90625 691.976562 648.933594 C 692.84375 645.957031 693.277344 643.203125 693.277344 640.660156 C 693.277344 638.050781 692.84375 635.878906 691.976562 634.140625 C 691.105469 632.402344 689.871094 631.082031 688.265625 630.179688 C 686.660156 629.277344 684.753906 628.828125 682.550781 628.828125 C 679.207031 628.828125 676.265625 629.679688 673.726562 631.382812 C 671.183594 633.089844 669.0625 635.28125 667.359375 637.953125 C 665.652344 640.625 664.367188 643.433594 663.496094 646.375 C 662.625 649.316406 662.195312 652.023438 662.195312 654.496094 C 662.195312 657.105469 662.644531 659.328125 663.546875 661.164062 C 664.449219 663.003906 665.734375 664.390625 667.410156 665.328125 C 669.078125 666.261719 671.050781 666.730469 673.324219 666.730469 M 672.320312 674.753906 C 668.175781 674.753906 664.664062 673.914062 661.792969 672.246094 C 658.917969 670.574219 656.761719 668.25 655.324219 665.277344 C 653.886719 662.300781 653.167969 658.945312 653.167969 655.199219 C 653.167969 651.65625 653.804688 647.898438 655.074219 643.917969 C 656.34375 639.941406 658.234375 636.199219 660.738281 632.6875 C 663.246094 629.179688 666.390625 626.320312 670.164062 624.113281 C 673.941406 621.910156 678.335938 620.804688 683.351562 620.804688 C 687.496094 620.804688 690.988281 621.59375 693.828125 623.160156 C 696.667969 624.734375 698.808594 626.941406 700.246094 629.78125 C 701.683594 632.621094 702.402344 635.914062 702.402344 639.65625 C 702.402344 642.332031 702.015625 645.257812 701.25 648.429688 C 700.480469 651.605469 699.3125 654.746094 697.738281 657.855469 C 696.167969 660.964844 694.183594 663.789062 691.773438 666.328125 C 689.367188 668.871094 686.542969 670.910156 683.300781 672.445312 C 680.058594 673.984375 676.398438 674.753906 672.320312 674.753906 "/>
<path fill-rule="nonzero" fill="rgb(0%, 50.588989%, 67.059326%)" fill-opacity="1" d="M 709.621094 634.644531 C 706.8125 634.644531 703.941406 634.242188 701 633.441406 C 698.054688 632.636719 695.046875 631.234375 691.972656 629.230469 C 691.105469 628.761719 690.621094 628.125 690.519531 627.324219 C 690.421875 626.519531 690.554688 625.753906 690.921875 625.015625 C 691.289062 624.28125 691.773438 623.730469 692.375 623.363281 C 692.976562 622.996094 693.546875 622.980469 694.078125 623.3125 C 696.488281 624.917969 699.113281 626.054688 701.953125 626.722656 C 704.792969 627.390625 707.75 627.722656 710.828125 627.722656 C 712.761719 627.722656 714.785156 627.507812 716.890625 627.074219 C 718.996094 626.640625 721.054688 625.988281 723.058594 625.117188 C 725.0625 624.25 726.800781 623.246094 728.273438 622.109375 C 728.941406 621.640625 729.578125 621.542969 730.175781 621.808594 C 730.78125 622.074219 731.246094 622.542969 731.582031 623.210938 C 731.914062 623.882812 732.066406 624.601562 732.035156 625.367188 C 732 626.136719 731.714844 626.757812 731.179688 627.222656 C 728.503906 629.164062 725.902344 630.683594 723.359375 631.785156 C 720.816406 632.886719 718.398438 633.640625 716.089844 634.042969 C 713.785156 634.441406 711.628906 634.644531 709.621094 634.644531 "/>
<path fill-rule="nonzero" fill="rgb(0%, 50.588989%, 67.059326%)" fill-opacity="1" d="M 758.457031 674.453125 C 755.644531 674.453125 753.507812 673.933594 752.039062 672.898438 C 750.566406 671.863281 749.628906 670.472656 749.226562 668.734375 C 748.828125 667 748.777344 665.074219 749.082031 662.96875 C 749.378906 660.863281 749.863281 658.742188 750.53125 656.601562 L 756.652344 638.351562 C 757.316406 636.347656 757.566406 634.628906 757.402344 633.1875 C 757.234375 631.753906 756.632812 630.648438 755.597656 629.878906 C 754.558594 629.113281 753.039062 628.726562 751.035156 628.726562 C 749.03125 628.726562 746.972656 629.226562 744.867188 630.230469 C 742.761719 631.234375 740.65625 632.65625 738.550781 634.492188 C 736.445312 636.332031 734.4375 638.519531 732.535156 641.058594 C 730.628906 643.601562 728.875 646.441406 727.269531 649.582031 L 720.050781 671.746094 C 719.78125 672.613281 719.300781 673.261719 718.597656 673.699219 C 717.894531 674.132812 716.773438 674.351562 715.234375 674.351562 C 714.167969 674.351562 713.164062 674.117188 712.226562 673.648438 C 711.292969 673.179688 711.058594 672.3125 711.527344 671.042969 L 726.566406 624.414062 C 727.035156 623.078125 727.585938 622.210938 728.222656 621.808594 C 728.859375 621.40625 729.808594 621.207031 731.082031 621.207031 C 733.152344 621.207031 734.472656 621.523438 735.042969 622.160156 C 735.605469 622.796875 735.65625 623.78125 735.191406 625.117188 L 732.683594 632.839844 C 734.289062 630.902344 735.960938 629.195312 737.695312 627.722656 C 739.4375 626.253906 741.207031 624.984375 743.011719 623.914062 C 744.816406 622.84375 746.65625 622.058594 748.527344 621.558594 C 750.398438 621.054688 752.269531 620.804688 754.144531 620.804688 C 757.953125 620.804688 760.8125 621.675781 762.71875 623.414062 C 764.621094 625.152344 765.707031 627.589844 765.976562 630.730469 C 766.242188 633.875 765.707031 637.519531 764.371094 641.664062 L 757.953125 661.316406 C 757.6875 662.183594 757.484375 663.054688 757.351562 663.921875 C 757.21875 664.792969 757.316406 665.511719 757.652344 666.078125 C 757.984375 666.648438 758.65625 666.929688 759.660156 666.929688 C 760.527344 666.929688 761.363281 666.699219 762.164062 666.230469 C 762.96875 665.761719 763.71875 665.144531 764.421875 664.375 C 765.125 663.605469 765.738281 662.855469 766.273438 662.117188 C 766.675781 661.515625 767.210938 661.117188 767.878906 660.914062 C 768.550781 660.714844 769.417969 660.949219 770.488281 661.617188 C 771.558594 662.285156 772.125 662.96875 772.191406 663.671875 C 772.257812 664.375 772.09375 665.09375 771.691406 665.828125 C 771.019531 666.964844 770.070312 668.21875 768.832031 669.589844 C 767.59375 670.960938 766.109375 672.113281 764.371094 673.046875 C 762.632812 673.980469 760.660156 674.453125 758.457031 674.453125 "/>
</svg>
